<?xml version="1.0" encoding="UTF-8"?>
<svg version="1.1" viewBox="300 360 1548 1608" width="1048" height="1048" xmlns="http://www.w3.org/2000/svg">
<path transform="translate(1117,630)" d="m0 0h20l14 4 11 6 12 11 6 8 6 12 3 11 1 10-2 15-5 14-9 13-9 9-3 2 20 3 25 6 21 7 5 1 9-14 13-16 10-9 18-12 15-7 17-5 12-2 20-1h196l31 1 20 4 15 6 15 8 13 10 10 9 10 12 9 15 7 16 4 14 2 11v32l-5 21-6 15-9 16-9 11-9 10-16 12-24 15-25 15-46 28-26 16-20 12-23 14-15 9-2 1 3 9 5 17 2 13v18l-1 5h96l11 4 10 9 5 10 1 3v16l-6 12-5 6-8 5-12 3h-101l-17-2h-9l-13 13-10 8-14 10-14 9-21 12-26 12-29 11-31 9-29 7-17 3h-5v2l9 2 23 10 18 10 16 11 11 9 11 10 7 8 12 16 6 10 1 1 14 1 12 4 8 6 7 8 5 12v16l-4 11-7 9-6 5-12 5-7 1h-426l-13-4-8-6-7-8-5-11-1-13 3-12 6-9 8-8 11-5 4-1 14-1 4-4 8-13 9-11 9-10 11-10 13-10 16-10 19-10 20-8 8-3-7-2-27-6-35-10-25-9-28-12-22-12-21-13-16-12-14-11-14-12-11-9-15-14-11-9-13-12-11-9-14-12-14-11-18-14-19-14-17-12-18-12-17-11-21-13-26-15-26-14-38-19-32-14-33-13-41-14-37-10-26-6-1-1v-43h35l42 3 34 4 35 6 36 8 37 10 32 11 28 11 41 19 27 11 33 11 24 6 26 4 14 1h14l18-2 17-4 22-8 43-17 43-16 7-3-15 1-50-1-11-4-9-7-7-11-3-11 1-11 4-10 9-10 8-5 9-3 22-1 15-20 12-12 11-10 16-11 17-10 23-10 25-8 29-6 9-1-12-11-9-14-5-14-1-6v-15l4-16 7-13 11-12 14-9 12-4zm238 134-22 1-13 4-10 6-10 9-8 13 1 5 7 7 9 11 9 13 2 1 18 1 12 4 9 7 7 11 2 6v13l-3 9-5 8-8 7-9 4-5 1-73 1 4 2 25 7 27 10 25 12 17 10 19 13 14 11 5 4 4-2 20-12 21-13 25-15 21-13 79-48 16-10 10-8 8-11 5-13 1-6v-14l-4-14-6-10-9-10-14-8-12-3z" fill="#EEBB5A"/>
</svg>
