<?xml version="1.0" ?><!DOCTYPE svg  PUBLIC '-//W3C//DTD SVG 1.1//EN'  'http://www.w3.org/Graphics/SVG/1.1/DTD/svg11.dtd'><svg enable-background="new 0 0 24 24" height="24px" id="Layer_1" version="1.1" viewBox="0 0 24 24" width="24px" xml:space="preserve" xmlns="http://www.w3.org/2000/svg" xmlns:xlink="http://www.w3.org/1999/xlink"><g id="icon"><circle cx="12" cy="12" fill="#ED5A4F" r="11"/><path d="M13.7193,11.336c0.0888,1.262,-0.0974,2.6127,-0.9178,3.6258c-1.1235,1.446,-3.1994,1.8703,-4.8878,1.3031c-1.7923,-0.5888,-3.0955,-2.3941,-3.0565,-4.286c-0.0887,-2.3378,1.959,-4.4982,4.299,-4.5263c1.1927,-0.1017,2.353,0.3615,3.2557,1.117c-0.3702,0.407,-0.7468,0.8096,-1.1494,1.1862c-0.7944,-0.4827,-1.7512,-0.8507,-2.6798,-0.5238c-1.4979,0.4264,-2.4049,2.195,-1.8508,3.6604c0.4589,1.5304,2.3205,2.3703,3.7795,1.7274c0.7555,-0.2706,1.2533,-0.9676,1.472,-1.7166c-0.8659,-0.0173,-1.7317,-0.0065,-2.5976,-0.0303c-0.0022,-0.5152,-0.0043,-1.0282,-0.0022,-1.5434C10.8273,11.3273,12.2733,11.323,13.7193,11.336zM17.8178,11.3098c-0.0022,-0.4308,0.0057,-0.8098,0.0036,-1.3098c-0.4308,0,-0.8594,0,-1.288,0c-0.0043,0.5,-0.0227,0.8791,-0.0249,1.3098c-0.4329,0.0043,-0.8085,0.0218,-1.3085,0.024c0,0.4308,0,0.8594,0,1.2901c0.5,0.0022,0.8777,0.0043,1.3085,0.0087c0.0043,0.4308,0.0114,0.8615,0.0157,1.2945c0.4286,0,0.8629,-0.0022,1.2936,0c0.0022,-0.4329,-0.0062,-0.8637,-0.0018,-1.2966c0.4308,-0.0022,0.884,-0.0043,1.284,-0.0065c0,-0.4308,0,-0.8594,0,-1.2901C18.7,11.3317,18.2485,11.3142,17.8178,11.3098z" fill="#FFFFFF"/><path d="M4.2218,19.7782C6.2124,21.7688,8.9624,23,12,23c6.0751,0,11,-4.9249,11,-11c0,-3.0376,-1.2312,-5.7876,-3.2218,-7.7782L4.2218,19.7782z" fill="#231F20" opacity="0.1"/></g></svg>