<?xml version="1.0" encoding="UTF-8" standalone="no" ?>
<!DOCTYPE svg PUBLIC "-//W3C//DTD SVG 1.1//EN" "http://www.w3.org/Graphics/SVG/1.1/DTD/svg11.dtd">
<svg xmlns="http://www.w3.org/2000/svg" xmlns:xlink="http://www.w3.org/1999/xlink" version="1.1" width="500" height="500" viewBox="60 60 380 380" xml:space="preserve">
<desc>Created with Fabric.js 3.6.3</desc>
<defs>
</defs>
<g transform="matrix(0.5 0 0 0.5 250 253)" clip-path="url(#CLIPPATH_9184)">
<clipPath id="CLIPPATH_9184">
    <ellipse transform="matrix(1 0 0 1 0 0)" cx="0" cy="0" rx="365" ry="365"/>
</clipPath>
<ellipse style="stroke: rgb(0,0,0); stroke-width: 5; stroke-dasharray: none; stroke-linecap: butt; stroke-dashoffset: 0; stroke-linejoin: miter; stroke-miterlimit: 4; fill: white; fill-rule: nonzero; opacity: 1;" cx="0" cy="0" rx="370" ry="370"/>
</g><g transform="matrix(3.3080953667518336 0 0 3.308095366751833 251 250.99999999999997)">
<circle style="stroke: none; stroke-width: 0; stroke-dasharray: none; stroke-linecap: butt; stroke-dashoffset: 0; stroke-linejoin: miter; stroke-miterlimit: 4; fill: rgb(0,0,0); fill-rule: evenodd; opacity: 1;" cx="0" cy="0" r="47.0059"/>
</g>
<g transform="matrix(3.384835769414505 0 0 3.384835769414505 251 251)">
<path style="stroke: none; stroke-width: 0; stroke-dasharray: none; stroke-linecap: butt; stroke-dashoffset: 0; stroke-linejoin: miter; stroke-miterlimit: 4; fill: rgb(126,217,88); fill-rule: evenodd; opacity: 1;" transform=" translate(-32, -32)" d="M 16 2 C 8.26801 2 2 8.26801 2 16 V 48 C 2 55.732 8.26801 62 16 62 H 48 C 55.732 62 62 55.732 62 48 V 16 C 62 8.26801 55.732 2 48 2 H 16 Z M 36 33 C 36 34.1046 35.1046 35 34 35 H 22 C 20.8954 35 20 34.1046 20 33 C 20 31.8954 20.8954 31 22 31 H 34 C 35.1046 31 36 31.8954 36 33 Z M 15.1094 14.3359 C 14.1903 13.7232 12.9486 13.9715 12.3359 14.8906 C 11.7232 15.8097 11.9715 17.0514 12.8906 17.6641 L 16.8983 20.3359 C 18.0858 21.1275 18.0858 22.8725 16.8983 23.6641 L 12.8906 26.3359 C 11.9715 26.9486 11.7232 28.1903 12.3359 29.1094 C 12.9486 30.0285 14.1903 30.2768 15.1094 29.6641 L 19.1171 26.9923 C 22.6795 24.6174 22.6795 19.3826 19.1171 17.0077 L 15.1094 14.3359 Z" stroke-linecap="round"/>
</g>
<g transform="matrix(0.38373570520965694 0 0 0.08293137484929093 253.19186785260484 326.58605102468255)">
<rect style="stroke: none; stroke-width: 1; stroke-dasharray: none; stroke-linecap: butt; stroke-dashoffset: 0; stroke-linejoin: miter; stroke-miterlimit: 4; fill: white; fill-rule: evenodd; opacity: 1;" x="-393.5" y="-393.5" rx="0" ry="0" width="775" height="787"/>
</g>
<g transform="matrix(1 -2.4493e-16 2.4493e-16 1 191.05004286280894 332.8240234359747)" style=""><path fill="#FF712C" opacity="1" d="M-55.59-1.28C-55.59 8.19-49.75 14.68-41.15 14.68C-32.13 14.68-26.01 7.87-26.01-2.02C-26.01-11.49-31.85-17.98-40.50-17.98C-49.47-17.98-55.59-11.17-55.59-1.28ZM-50.94-1.74C-50.94-9.84-46.90-15.36-40.92-15.36C-34.84-15.36-30.66-9.75-30.66-1.56C-30.66 6.54-34.71 12.06-40.73 12.06C-46.80 12.06-50.94 6.45-50.94-1.74Z"/><path fill="#FF712C" opacity="1" d="M-18.56 22.18C-18.56 24.62-17.78 25.03-16.81 25.03C-15.85 25.03-14.88 24.94-13.96 24.48C-14.24 23.93-14.37 22.73-14.37 20.89L-14.37 13.07C-13.13 14.08-11.48 14.68-9.41 14.68C-2.46 14.68 1.54 9.39 1.54 2.40C1.54-3.86-2.05-7.86-6.92-7.86C-10.97-7.86-13.41-5.19-14.37-2.25L-14.37-2.57C-14.37-4.27-14.56-6.07-14.93-7.81C-16.67-7.81-18.24-7.58-19.02-7.35C-18.65-4.73-18.56-3.03-18.56-0.73ZM-8.44-5.33C-5.36-5.33-3.01-2.16-3.01 2.90C-3.01 8.01-5.22 12.15-9.50 12.15C-11.61 12.15-13.09 11.64-14.37 10.40L-14.37 2.58C-14.28-1.01-11.89-5.33-8.44-5.33Z"/><path fill="#FF712C" opacity="1" d="M7.52 3.69C7.52 10.22 11.71 14.68 18.33 14.68C22.24 14.68 25.55 12.84 27.16 10.13L26.52 9.76C26.20 9.53 25.83 9.39 25.55 9.39C24.73 9.39 23.58 12.15 19.07 12.15C14.84 12.15 12.03 8.65 11.94 3.55L26.57 3.55C27.07 3.00 27.39 2.44 27.39 1.52C27.39-4.13 24.04-7.86 18.01-7.86C11.80-7.86 7.52-3.17 7.52 3.69ZM17.87-5.33C21.00-5.33 22.98-2.98 23.30 1.25L12.08 1.25C12.63-2.75 14.84-5.33 17.87-5.33Z"/><path fill="#FF712C" opacity="1" d="M50.07 11.78C50.07 14.22 50.90 14.63 51.82 14.63C52.69 14.63 54.03 14.45 55.04 13.99C54.39 13.44 54.26 12.33 54.26 10.49L54.26-1.19C54.26-5.05 51.50-7.86 47.63-7.86C43.22-7.86 40.13-5.05 38.98-2.20L38.98-2.57C38.98-4.27 38.80-6.07 38.43-7.81C36.68-7.81 35.12-7.58 34.34-7.35C34.71-4.73 34.80-3.03 34.80-0.73L34.80 11.78C34.80 14.22 35.58 14.63 36.55 14.63C37.51 14.63 38.48 14.54 39.40 14.08C39.12 13.53 38.98 12.33 38.98 10.49L38.98 2.67C38.98-0.87 41.97-5.33 45.70-5.33C48.28-5.33 50.07-3.26 50.07-0.18Z"/></g><g transform="matrix(1 0 0 1 308.57669059528524 332.0580813404539)" style=""><path fill="#000000" opacity="1" d="M-53.21 12.29C-53.21 14.84-52.39 15.27-51.38 15.27C-50.57 15.27-49.18 15.08-48.17 14.60C-48.65 14.02-48.70 12.87-48.70 10.95L-48.70 1.35C-47.78 1.30-46.87 1.30-45.86 1.30L-42.89 1.30L-35.98 12.20C-34.44 14.89-33.10 15.27-31.99 15.27C-30.98 15.27-29.69 15.08-28.82 14.60C-29.83 13.97-30.70 12.77-31.94 10.81L-38.42 0.68C-33.86-0.71-31.03-4.22-31.03-8.83C-31.03-14.59-35.59-18.52-42.36-18.52L-49.37-18.52C-51.19-18.47-52.92-18.28-53.69-18.09C-53.30-15.35-53.21-13.58-53.21-11.18ZM-48.79-15.83L-42.74-15.83C-38.52-15.83-35.64-12.86-35.64-8.54C-35.64-4.31-38.42-1.39-42.55-1.39L-46.58-1.39C-47.30-1.39-48.02-1.39-48.70-1.34L-48.70-11.90C-48.70-13.19-48.74-14.54-48.79-15.83Z"/><path fill="#000000" opacity="1" d="M-6.17-0.86C-3.62-0.86-3.19-1.34-3.19-1.96C-3.19-2.49-3.34-3.31-3.86-3.88C-4.44-3.59-5.59-3.55-7.51-3.55L-17.69-3.55C-18.41-3.55-19.13-3.55-19.80-3.50L-19.80-11.90C-19.80-13.24-19.85-14.54-19.94-15.79C-19.13-15.83-18.31-15.83-17.40-15.83L-4.92-15.83C-2.42-15.83-1.99-16.31-1.99-16.99C-1.99-17.51-2.14-18.33-2.62-18.95C-3.19-18.57-4.39-18.52-6.31-18.52L-18.12-18.52C-20.38-18.52-22.78-18.43-24.79-18.19C-24.41-15.50-24.31-13.63-24.31-11.23L-24.31 12.73C-24.31 13.73-24.12 14.79-23.88 15.41C-21.14 15.13-19.37 15.08-16.97 15.08L-4.49 15.08C-1.94 15.08-1.51 14.55-1.51 13.93C-1.51 13.35-1.66 12.49-2.18 11.86C-2.76 12.34-3.91 12.39-5.83 12.39L-17.69 12.39C-18.41 12.39-19.08 12.39-19.80 12.44L-19.80-0.81C-18.89-0.86-17.98-0.86-16.97-0.86Z"/><path fill="#000000" opacity="1" d="M4.68 12.29C4.68 14.84 5.50 15.27 6.50 15.27C7.32 15.27 8.71 15.08 9.72 14.60C9.24 14.02 9.19 12.87 9.19 10.95L9.19 1.59C10.10 1.54 11.02 1.54 12.02 1.54L14.42 1.54C21.72 1.54 26.66-2.63 26.66-8.73C26.66-14.54 21.96-18.52 15.10-18.52L8.86-18.52C6.94-18.52 5.02-18.28 4.20-18.09C4.58-15.35 4.68-13.58 4.68-11.18ZM9.10-15.83L14.66-15.83C19.03-15.83 22.06-12.81 22.06-8.44C22.06-4.12 19.13-1.15 14.86-1.15L11.30-1.15C10.58-1.15 9.86-1.15 9.19-1.10L9.19-11.90C9.19-13.19 9.14-14.54 9.10-15.83Z"/><path fill="#000000" opacity="1" d="M52.06 15.08C54.60 15.08 54.98 14.55 54.98 13.93C54.98 13.35 54.84 12.49 54.36 11.86C53.78 12.34 52.63 12.39 50.71 12.39L39.34 12.39C38.62 12.39 37.94 12.39 37.22 12.44L37.22-12.04C37.22-14.30 37.13-16.70 36.89-18.71C35.02-18.71 33.05-18.47 32.23-18.23C32.62-15.50 32.71-13.72 32.71-11.32L32.71 12.73C32.71 13.73 32.90 14.79 33.14 15.41C35.88 15.13 37.66 15.08 40.06 15.08Z"/></g>
</svg>
