<?xml version="1.0" ?><!DOCTYPE svg  PUBLIC '-//W3C//DTD SVG 1.1//EN'  'http://www.w3.org/Graphics/SVG/1.1/DTD/svg11.dtd'><svg enable-background="new 0 0 48 48" id="Layer_1" version="1.1" viewBox="0 0 48 48" xml:space="preserve" xmlns="http://www.w3.org/2000/svg" xmlns:xlink="http://www.w3.org/1999/xlink"><circle cx="24" cy="24" fill="#CA3737" r="24"/><path d="M24,12.1c-6.6,0-11.9,5.3-11.9,11.9c0,4.9,2.9,9,7.1,10.9c0-0.8,0-1.8,0.2-2.7c0.2-1,1.5-6.5,1.5-6.5  s-0.4-0.8-0.4-1.9c0-1.8,1-3.1,2.3-3.1c1.1,0,1.6,0.8,1.6,1.8c0,1.1-0.7,2.7-1,4.2C23.1,28,24.1,29,25.3,29c2.3,0,3.8-2.9,3.8-6.3  c0-2.6-1.8-4.5-4.9-4.5c-3.6,0-5.8,2.7-5.8,5.7c0,1,0.3,1.8,0.8,2.3c0.2,0.3,0.3,0.4,0.2,0.7c-0.1,0.2-0.2,0.7-0.2,1  c-0.1,0.3-0.3,0.4-0.6,0.3c-1.7-0.7-2.4-2.5-2.4-4.5c0-3.4,2.8-7.4,8.5-7.4c4.5,0,7.5,3.3,7.5,6.8c0,4.7-2.6,8.1-6.4,8.1  c-1.3,0-2.5-0.7-2.9-1.5c0,0-0.7,2.7-0.8,3.3c-0.3,0.9-0.7,1.8-1.2,2.5c1.1,0.3,2.2,0.5,3.4,0.5c6.6,0,11.9-5.3,11.9-11.9  C35.9,17.4,30.6,12.1,24,12.1z" fill="#FFFFFF"/></svg>